<?xml version="1.0" encoding="UTF-8"?>
<!-- Generator: Adobe Illustrator 12.0.0, SVG Export Plug-In . SVG Version: 6.00 Build 51448)  -->
<!DOCTYPE svg PUBLIC "-//W3C//DTD SVG 1.1//EN" "http://www.w3.org/Graphics/SVG/1.1/DTD/svg11.dtd">
<svg version="1.1" id="Layer_1" xmlns="http://www.w3.org/2000/svg" xmlns:xlink="http://www.w3.org/1999/xlink" width="561.261" height="138.343" viewBox="0 0 561.261 138.343" overflow="visible" enable-background="new 0 0 561.261 138.343" xml:space="preserve">
<g>
	<path fill-rule="evenodd" clip-rule="evenodd" fill="#ED1C24" d="M237.867,125.019H0l5.313-5.344H233.01L237.867,125.019   L237.867,125.019z M12.505,112.438l4.812-4.84H222.04l8.225,9.053h-33.129l-3.751-4.213h-65.292l3.753,4.213H99.529l-3.75-4.213   H12.505L12.505,112.438z M24.378,100.497l4.944-4.975h83.689l4.496,4.975h-0.045l3.634,4.078H88.781l-3.634-4.078H24.378   L24.378,100.497z M36.25,88.556l5.074-5.109h60.766l8.188,9.053H78.032l-3.516-3.943H36.25L36.25,88.556z M48.122,76.608   l5.208-5.238H91.17l8.188,9.059H67.283l-3.398-3.82H48.122L48.122,76.608z M56.332,68.351l12.335-12.407h106.441l11.273,12.407   h-32.626l-4.646-5.221l-65.591-0.22l4.922,5.44H56.332L56.332,68.351z M75.394,49.176l5.276-5.309h83.468l8.225,9.056h-32.228   l-3.334-3.747H75.394L75.394,49.176z M87.265,37.233l5.754-5.788h59.833l8.542,9.401h-32.005l-3.218-3.614H87.265L87.265,37.233z    M99.138,25.291l4.334-4.361h39.825l6.812,7.497H118.33l-2.791-3.136H99.138L99.138,25.291z M106.477,17.911l5.9-5.937h22.783   l5.394,5.937H106.477L106.477,17.911z M115.38,8.953L124.28,0l8.136,8.953H115.38L115.38,8.953z M189.127,71.37l8.227,9.059H164.89   l-3.398-3.82h-18.217l5.237-5.238H189.127L189.127,71.37z M200.098,83.446l8.227,9.053h-32.685l-3.517-3.943h-40.79l5.105-5.109   H200.098L200.098,83.446z M211.069,95.522l8.225,9.053h-32.906l-3.634-4.078h-63.365l4.973-4.975H211.069L211.069,95.522z"/>
	<path fill-rule="evenodd" clip-rule="evenodd" d="M244.953,53.963h14.936v-0.984c-2.313-0.075-5.373-0.907-5.373-3.404   c0-0.984,0.448-1.893,0.895-2.877l4.254-10.065h19.699l4.327,10.141c0.299,0.757,0.522,1.967,0.522,2.875   c0,1.438-0.598,2.498-5.223,3.33v0.984h20.893v-0.984c-4.626-0.605-5.446-2.118-7.685-7.189L272.275,0.306h-0.672L251.754,45.79   c-1.715,3.86-3.357,6.661-6.801,7.189V53.963L244.953,53.963z M269.514,13.626l8.506,19.752h-16.938L269.514,13.626L269.514,13.626   z"/>
	<path fill-rule="evenodd" clip-rule="evenodd" d="M311.751,16.805l-11.938,4.616l0.299,0.984c0.671-0.227,1.717-0.454,2.464-0.454   c2.61,0,2.833,3.103,2.833,5.373v19.677c0,2.347,0.076,5.978-5.446,5.978h-0.744v0.984h17.757v-0.984h-0.747   c-4.775,0-4.477-4.087-4.477-5.978V26.568c2.165-2.196,5.599-4.844,9.478-4.844c3.955,0,5.373,3.255,5.373,6.584v18.693   c0,1.891,0.299,5.978-4.477,5.978h-0.747v0.984h16.787v-0.984h-0.744c-4.775,0-4.477-4.087-4.477-5.978V26.643   c1.863-1.893,5.745-4.919,9.7-4.919c3.507,0,5.147,2.194,5.147,6.659v18.618c0,1.891,0.299,5.978-4.477,5.978h-0.747v0.984h17.76   v-0.984h-0.747c-5.522,0-5.446-3.631-5.446-5.978V28.156c0-4.313-0.747-11.124-8.581-11.124c-5.001,0-9.029,3.557-12.908,7.491   c-0.674-5.373-5.074-7.491-8.73-7.491c-4.553,0-7.91,3.103-12.164,6.962V16.805L311.751,16.805z"/>
	<path fill-rule="evenodd" clip-rule="evenodd" d="M391.374,31.334c0.223-6.886-3.955-14.303-13.058-14.303   c-9.105,0-15.223,8.098-15.223,18.769c0,9.308,4.178,18.857,14.326,18.857c9.252,0,13.729-8.489,15.146-14.392l-1.192-0.454   c-1.939,5.373-6.27,9.006-11.118,9.006c-6.044,0-12.088-5.373-11.716-17.483H391.374L391.374,31.334z M368.689,28.913   c0.226-2.043,1.418-9.082,7.538-9.082c5.074,0,7.535,4.768,7.386,9.082H368.689L368.689,28.913z"/>
	<path fill-rule="evenodd" clip-rule="evenodd" d="M409.362,16.879l-11.938,4.617l0.299,0.984c0.671-0.227,1.714-0.454,2.461-0.454   c2.61,0,2.836,3.103,2.836,5.373v19.601c0,2.347,0.073,5.978-5.446,5.978h-0.747v0.984h18.729v-0.984h-0.747   c-5.522,0-5.446-3.631-5.446-5.978V26.492c0.671-1.135,2.76-4.39,4.849-4.39c1.119,0,1.717,0.454,2.165,0.984   c0.82,0.832,1.567,1.74,3.208,1.74c1.939,0,3.284-1.666,3.284-3.557c0-2.271-2.089-4.238-4.852-4.238   c-3.431,0-6.791,3.253-8.654,6.584V16.879L409.362,16.879z"/>
	<path fill-rule="evenodd" clip-rule="evenodd" d="M436.228,16.805l-11.938,4.616l0.299,0.984c0.674-0.227,1.717-0.454,2.464-0.454   c2.61,0,2.836,3.103,2.836,5.373v19.677c0,2.347,0.073,5.978-5.449,5.978h-0.744v0.984h18.727v-0.984h-0.744   c-5.522,0-5.449-3.631-5.449-5.978V16.805L436.228,16.805z M428.769,4.998c0,2.271,1.79,4.087,4.028,4.087s4.028-1.816,4.028-4.087   s-1.79-4.087-4.028-4.087S428.769,2.728,428.769,4.998L428.769,4.998z"/>
	<path fill-rule="evenodd" clip-rule="evenodd" d="M474.513,40.266c-1.418,4.541-5.373,8.249-10.746,8.249   c-7.535,0-11.64-6.508-11.64-14.909c0-9.762,4.702-14.228,9.627-14.228c4.55,0,4.998,3.028,5.373,5.373   c0.223,1.515,0.82,3.936,3.879,3.936c2.016,0,3.284-1.513,3.284-3.784c0-4.844-5.748-7.871-11.643-7.871   c-9.923,0-16.937,8.476-16.937,18.92c0,9.082,4.925,18.706,15.372,18.706c9.7,0,13.356-8.187,14.848-13.938L474.513,40.266   L474.513,40.266z"/>
	<path fill-rule="evenodd" clip-rule="evenodd" d="M512.798,48.212c-0.973,1.059-2.391,1.891-3.656,1.891   c-1.195,0-1.942-0.756-1.942-2.194V26.492c0-2.347-0.073-9.46-11.64-9.46c-5.895,0-12.908,3.253-12.908,8.93   c0,2.194,1.046,3.557,2.909,3.557c1.567,0,3.208-0.681,3.208-3.103c0-0.756-0.146-1.589-0.146-2.347   c0-1.967,1.266-4.919,5.596-4.919c6.416,0,6.639,5.6,6.639,6.962v4.693c-10.222,3.48-19.696,6.508-19.696,15.287   c0,3.255,1.714,8.565,7.758,8.565c4.702,0,9.255-3.495,11.938-6.294c-0.073,2.271,0.747,6.294,4.254,6.294   c3.357,0,5.895-2.585,8.432-5.689L512.798,48.212L512.798,48.212z M500.856,46.547c-1.79,1.513-4.849,3.936-7.758,3.936   c-4.031,0-5.821-2.952-5.821-5.979c0-6.584,6.94-9.082,13.579-11.427V46.547L500.856,46.547z"/>
	<path fill-rule="evenodd" clip-rule="evenodd" d="M527.874,16.805l-11.938,4.616l0.299,0.984c0.671-0.227,1.717-0.454,2.461-0.454   c2.613,0,2.836,3.103,2.836,5.373v19.677c0,2.347,0.076,5.978-5.446,5.978h-0.747v0.984h17.76v-0.984h-0.747   c-4.775,0-4.477-4.087-4.477-5.978V26.87c3.059-3.179,6.12-5.146,9.85-5.146c2.464,0,5.15,0.984,5.15,6.962v18.315   c0,1.891,0.296,5.978-4.479,5.978h-0.744v0.984h17.757v-0.984h-0.744c-5.522,0-5.449-3.631-5.449-5.978V28.005   c0-8.476-5.37-10.973-9.475-10.973c-4.775,0-8.209,3.708-11.865,7.947V16.805L527.874,16.805z"/>
	<path fill-rule="evenodd" clip-rule="evenodd" d="M255.189,71.728h-15.968v0.984h1.286c6.51,0,6.357,3.785,6.357,5.373v40.266   c0,1.588,0.152,5.373-6.357,5.373h-1.286v0.979h18.693v-0.979h-1.286c-6.508,0-6.357-3.785-6.357-5.373V79.901l19.904,44.801h0.681   l20.057-44.648v38.297c0,1.588,0.149,5.373-6.359,5.373h-1.285v0.979h23.688v-0.979h-1.286c-6.51,0-6.357-3.785-6.357-5.373V78.085   c0-1.588-0.152-5.373,6.357-5.373h1.286v-0.984h-15.97l-17.859,39.732L255.189,71.728L255.189,71.728z"/>
	<path fill-rule="evenodd" clip-rule="evenodd" d="M332.312,102.079c0.226-6.891-4.011-14.309-13.245-14.309   c-9.231,0-15.439,8.098-15.439,18.773c0,9.305,4.239,18.855,14.531,18.855c9.384,0,13.925-8.49,15.363-14.391l-1.21-0.457   c-1.969,5.373-6.357,9.006-11.276,9.006c-6.132,0-12.261-5.373-11.883-17.479H332.312L332.312,102.079z M309.305,99.653   c0.226-2.045,1.436-9.082,7.644-9.082c5.145,0,7.644,4.77,7.491,9.082H309.305L309.305,99.653z"/>
	<path fill-rule="evenodd" clip-rule="evenodd" d="M358.271,90.571c-3.026-2.115-6.281-2.648-8.326-2.648   c-6.507,0-13.093,4.617-13.093,12.188c0,3.932,1.893,7.793,6.132,9.762c-2.271,1.74-5.678,4.916-5.678,7.717   c0,1.518,1.137,3.557,3.633,4.166c-2.496,2.268-6.961,5.537-6.961,8.941c0,3.029,3.557,7.646,14.909,7.646   c9.006,0,18.466-4.846,18.466-12.867c0-7.887-6.357-9.018-14.909-8.941c-1.515,0-3.103,0.07-4.617,0   c-2.725-0.152-5.449,0.07-5.449-1.893c0-1.67,1.893-3.41,2.648-3.938c1.816,0.68,3.331,0.756,5.147,0.756   c8.854,0,12.791-6.053,12.791-11.883c0-1.664-0.606-3.855-2.197-5.977h6.056l0.302-3.252L358.271,90.571L358.271,90.571z    M342.984,122.282c15.287,1.137,22.022-1.207,22.022,4.477c0,6.211-11.2,6.586-14.227,6.586c-4.392,0-10.822-0.908-10.822-5.068   C339.958,126.079,341.168,124.327,342.984,122.282L342.984,122.282z M350.628,109.192c-5.751,0-7.494-7.875-7.494-12.188   c0-5.449,3.483-6.885,5.678-6.885c3.179,0,7.567,3.023,7.567,12.105C356.379,103.896,356.303,109.192,350.628,109.192   L350.628,109.192z"/>
	<path fill-rule="evenodd" clip-rule="evenodd" d="M398.156,118.954c-0.981,1.061-2.42,1.893-3.706,1.893   c-1.213,0-1.969-0.756-1.969-2.197V97.233c0-2.35-0.076-9.463-11.807-9.463c-5.979,0-13.093,3.258-13.093,8.93   c0,2.197,1.061,3.563,2.95,3.563c1.591,0,3.255-0.686,3.255-3.105c0-0.756-0.149-1.588-0.149-2.344   c0-1.969,1.286-4.922,5.675-4.922c6.51,0,6.735,5.602,6.735,6.961v4.693c-10.368,3.48-19.98,6.51-19.98,15.287   c0,3.258,1.74,8.566,7.872,8.566c4.767,0,9.384-3.492,12.108-6.293c-0.076,2.268,0.756,6.293,4.315,6.293   c3.404,0,5.977-2.584,8.552-5.689L398.156,118.954L398.156,118.954z M386.048,117.29c-1.816,1.512-4.919,3.932-7.869,3.932   c-4.087,0-5.903-2.947-5.903-5.977c0-6.586,7.037-9.082,13.772-11.426V117.29L386.048,117.29z"/>
	<path fill-rule="evenodd" clip-rule="evenodd" d="M406.104,88.456V77.78h-1.058c-1.591,5.602-5.678,10.219-10.898,11.959v1.441   h5.525v23.912c0,9.006,3.404,10.307,7.266,10.307c3.179,0,5.373-0.92,9.914-6.598l-0.683-0.68c-1.588,1.74-3.255,3.1-5.221,3.1   c-4.846,0-4.846-4.992-4.846-7.266V91.181h7.796v-2.725H406.104L406.104,88.456z"/>
	<path fill-rule="evenodd" clip-rule="evenodd" d="M426.313,87.624l-12.108,4.611l0.305,0.984c0.68-0.223,1.74-0.451,2.496-0.451   c2.648,0,2.877,3.1,2.877,5.373v19.6c0,2.35,0.073,5.982-5.525,5.982h-0.756v0.979h18.996v-0.979h-0.759   c-5.599,0-5.525-3.633-5.525-5.982V97.233c0.683-1.137,2.801-4.389,4.922-4.389c1.134,0,1.74,0.451,2.194,0.984   c0.832,0.832,1.588,1.74,3.255,1.74c1.966,0,3.328-1.664,3.328-3.557c0-2.273-2.118-4.242-4.919-4.242   c-3.48,0-6.888,3.258-8.78,6.586V87.624L426.313,87.624z"/>
	<path fill-rule="evenodd" clip-rule="evenodd" d="M464.915,102.079c0.226-6.891-4.011-14.309-13.245-14.309   s-15.439,8.098-15.439,18.773c0,9.305,4.239,18.855,14.531,18.855c9.384,0,13.925-8.49,15.363-14.391l-1.21-0.457   c-1.969,5.373-6.357,9.006-11.276,9.006c-6.132,0-12.261-5.373-11.883-17.479H464.915L464.915,102.079z M441.908,99.653   c0.226-2.045,1.436-9.082,7.644-9.082c5.145,0,7.644,4.77,7.491,9.082H441.908L441.908,99.653z"/>
	<path fill-rule="evenodd" clip-rule="evenodd" d="M477.554,87.548l-12.108,4.611l0.305,0.984c0.68-0.223,1.74-0.451,2.496-0.451   c2.648,0,2.877,3.1,2.877,5.373v19.676c0,2.35,0.073,5.982-5.525,5.982h-0.756v0.979h18.012v-0.979h-0.759   c-4.843,0-4.541-4.09-4.541-5.982V97.608c3.105-3.176,6.208-5.145,9.99-5.145c2.499,0,5.224,0.984,5.224,6.961v18.316   c0,1.893,0.302,5.982-4.541,5.982h-0.759v0.979h18.015v-0.979h-0.759c-5.599,0-5.522-3.633-5.522-5.982V98.745   c0-8.473-5.449-10.975-9.612-10.975c-4.846,0-8.326,3.709-12.035,7.951V87.548L477.554,87.548z"/>
	<path fill-rule="evenodd" clip-rule="evenodd" d="M522.208,75.36l0.305,0.984c0.68-0.229,1.74-0.457,2.496-0.457   c2.648,0,2.877,3.105,2.877,5.379v9.229c-2.801-1.893-5.827-2.725-8.479-2.725c-9.155,0-16.723,9.082-16.723,19.377   c0,8.777,4.69,18.252,13.62,18.252c3.483,0,7.872-1.453,11.581-5.461v5.385l12.108-4.781l-0.302-0.908   c-0.683,0.305-1.667,0.604-2.347,0.604c-2.575,0-3.026-2.42-3.026-5.449V70.744L522.208,75.36L522.208,75.36z M527.886,116.909   c-1.286,1.441-3.633,3.328-7.418,3.328c-6.961,0-10.975-7.113-10.975-14.982c0-8.701,4.392-14.982,9.99-14.982   c3.938,0,8.402,2.572,8.402,7.564V116.909L527.886,116.909z"/>
	<path fill-rule="evenodd" clip-rule="evenodd" d="M558.841,88.907h-0.756c-1.137,1.061-1.893,0.68-2.801,0.381   c-2.499-0.908-4.77-1.518-6.812-1.518c-5.147,0-10.746,3.785-10.746,10.219c0,6.129,4.313,8.25,11.124,11.959   c2.725,1.512,6.812,3.785,6.812,7.945c0,3.182-2.648,5.068-6.205,5.068c-7.872,0-9.99-7.641-10.444-10.969h-1.061l0.229,12.873   h1.21c0.226-0.539,0.756-1.072,2.042-1.072c0.454,0,0.835,0.152,1.289,0.229c2.118,0.533,4.236,1.377,7.415,1.377   c7.189,0,11.124-4.781,11.124-9.094c0-6.357-4.992-9.914-9.308-12.34c-4.389-2.496-9.384-3.855-9.384-8.549   c0-3.328,3.026-5.221,6.205-5.221c3.785,0,8.704,2.947,9.158,9.457h1.061L558.841,88.907L558.841,88.907z"/>
</g>
</svg>