<?xml version="1.0" encoding="UTF-8" standalone="no" ?>
<!DOCTYPE svg PUBLIC "-//W3C//DTD SVG 1.1//EN" "http://www.w3.org/Graphics/SVG/1.1/DTD/svg11.dtd">
<svg xmlns="http://www.w3.org/2000/svg" xmlns:xlink="http://www.w3.org/1999/xlink" version="1.1" width="640" height="480" viewBox="0 0 640 480" xml:space="preserve">
<desc>Created with Fabric.js 3.6.6</desc>
<defs>
</defs>
<g transform="matrix(2.58 0 0 -3.22 317.15 211.61)"  >
<path style="stroke: none; stroke-width: 1; stroke-dasharray: none; stroke-linecap: butt; stroke-dashoffset: 0; stroke-linejoin: miter; stroke-miterlimit: 4; fill: rgb(255,6,0); fill-rule: evenodd; opacity: 1;"  transform=" translate(-118.93, -62.51)" d="M 237.867 125.019 H 0 l 5.313 -5.344 H 233.01 L 237.867 125.019 L 237.867 125.019 z M 12.505 112.438 l 4.812 -4.84 H 222.04 l 8.225 9.053 h -33.129 l -3.751 -4.213 h -65.292 l 3.753 4.213 H 99.529 l -3.75 -4.213 H 12.505 L 12.505 112.438 z M 24.378 100.497 l 4.944 -4.975 h 83.689 l 4.496 4.975 h -0.045 l 3.634 4.078 H 88.781 l -3.634 -4.078 H 24.378 L 24.378 100.497 z M 36.25 88.556 l 5.074 -5.109 h 60.766 l 8.188 9.053 H 78.032 l -3.516 -3.943 H 36.25 L 36.25 88.556 z M 48.122 76.608 l 5.208 -5.238 H 91.17 l 8.188 9.059 H 67.283 l -3.398 -3.82 H 48.122 L 48.122 76.608 z M 56.332 68.351 l 12.335 -12.407 h 106.441 l 11.273 12.407 h -32.626 l -4.646 -5.221 l -65.591 -0.22 l 4.922 5.44 H 56.332 L 56.332 68.351 z M 75.394 49.176 l 5.276 -5.309 h 83.468 l 8.225 9.056 h -32.228 l -3.334 -3.747 H 75.394 L 75.394 49.176 z M 87.265 37.233 l 5.754 -5.788 h 59.833 l 8.542 9.401 h -32.005 l -3.218 -3.614 H 87.265 L 87.265 37.233 z M 99.138 25.291 l 4.334 -4.361 h 39.825 l 6.812 7.497 H 118.33 l -2.791 -3.136 H 99.138 L 99.138 25.291 z M 106.477 17.911 l 5.9 -5.937 h 22.783 l 5.394 5.937 H 106.477 L 106.477 17.911 z M 115.38 8.953 L 124.28 0 l 8.136 8.953 H 115.38 L 115.38 8.953 z M 189.127 71.37 l 8.227 9.059 H 164.89 l -3.398 -3.82 h -18.217 l 5.237 -5.238 H 189.127 L 189.127 71.37 z M 200.098 83.446 l 8.227 9.053 h -32.685 l -3.517 -3.943 h -40.79 l 5.105 -5.109 H 200.098 L 200.098 83.446 z M 211.069 95.522 l 8.225 9.053 h -32.906 l -3.634 -4.078 h -63.365 l 4.973 -4.975 H 211.069 L 211.069 95.522 z" stroke-linecap="round" />
</g>
<g transform="matrix(-2.56 0 0 3.19 314.96 263.99)"  >
<path style="stroke: none; stroke-width: 1; stroke-dasharray: none; stroke-linecap: butt; stroke-dashoffset: 0; stroke-linejoin: miter; stroke-miterlimit: 4; fill: rgb(255,0,0); fill-rule: evenodd; opacity: 1;"  transform=" translate(-118.93, -62.51)" d="M 237.867 125.019 H 0 l 5.313 -5.344 H 233.01 L 237.867 125.019 L 237.867 125.019 z M 12.505 112.438 l 4.812 -4.84 H 222.04 l 8.225 9.053 h -33.129 l -3.751 -4.213 h -65.292 l 3.753 4.213 H 99.529 l -3.75 -4.213 H 12.505 L 12.505 112.438 z M 24.378 100.497 l 4.944 -4.975 h 83.689 l 4.496 4.975 h -0.045 l 3.634 4.078 H 88.781 l -3.634 -4.078 H 24.378 L 24.378 100.497 z M 36.25 88.556 l 5.074 -5.109 h 60.766 l 8.188 9.053 H 78.032 l -3.516 -3.943 H 36.25 L 36.25 88.556 z M 48.122 76.608 l 5.208 -5.238 H 91.17 l 8.188 9.059 H 67.283 l -3.398 -3.82 H 48.122 L 48.122 76.608 z M 56.332 68.351 l 12.335 -12.407 h 106.441 l 11.273 12.407 h -32.626 l -4.646 -5.221 l -65.591 -0.22 l 4.922 5.44 H 56.332 L 56.332 68.351 z M 75.394 49.176 l 5.276 -5.309 h 83.468 l 8.225 9.056 h -32.228 l -3.334 -3.747 H 75.394 L 75.394 49.176 z M 87.265 37.233 l 5.754 -5.788 h 59.833 l 8.542 9.401 h -32.005 l -3.218 -3.614 H 87.265 L 87.265 37.233 z M 99.138 25.291 l 4.334 -4.361 h 39.825 l 6.812 7.497 H 118.33 l -2.791 -3.136 H 99.138 L 99.138 25.291 z M 106.477 17.911 l 5.9 -5.937 h 22.783 l 5.394 5.937 H 106.477 L 106.477 17.911 z M 115.38 8.953 L 124.28 0 l 8.136 8.953 H 115.38 L 115.38 8.953 z M 189.127 71.37 l 8.227 9.059 H 164.89 l -3.398 -3.82 h -18.217 l 5.237 -5.238 H 189.127 L 189.127 71.37 z M 200.098 83.446 l 8.227 9.053 h -32.685 l -3.517 -3.943 h -40.79 l 5.105 -5.109 H 200.098 L 200.098 83.446 z M 211.069 95.522 l 8.225 9.053 h -32.906 l -3.634 -4.078 h -63.365 l 4.973 -4.975 H 211.069 L 211.069 95.522 z" stroke-linecap="round" />
</g>
</svg>